<svg viewBox="0 0 900 600" fill="none" xmlns="http://www.w3.org/2000/svg">
<g clip-path="url(#clip0_2_2)">
<path d="M900 0H0V600H900V0Z" fill="#FAF7F0"/>
<g filter="url(#filter0_f_2_2)">
<path d="M385 472C429.735 472 466 435.735 466 391C466 346.265 429.735 310 385 310C340.265 310 304 346.265 304 391C304 435.735 340.265 472 385 472Z" fill="#C9E8C4"/>
</g>
<g filter="url(#filter1_f_2_2)">
<path d="M161 568C172.598 568 182 558.598 182 547C182 535.402 172.598 526 161 526C149.402 526 140 535.402 140 547C140 558.598 149.402 568 161 568Z" fill="#C9E8C4"/>
</g>
<g filter="url(#filter2_f_2_2)">
<path d="M601 527C617.016 527 630 514.016 630 498C630 481.984 617.016 469 601 469C584.984 469 572 481.984 572 498C572 514.016 584.984 527 601 527Z" fill="#C9E8C4"/>
</g>
<g filter="url(#filter3_f_2_2)">
<path d="M626 324C651.957 324 673 302.957 673 277C673 251.043 651.957 230 626 230C600.043 230 579 251.043 579 277C579 302.957 600.043 324 626 324Z" fill="#C9E8C4"/>
</g>
<g filter="url(#filter4_f_2_2)">
<path d="M81 107C97.0163 107 110 94.0163 110 78C110 61.9837 97.0163 49 81 49C64.9837 49 52 61.9837 52 78C52 94.0163 64.9837 107 81 107Z" fill="#C9E8C4"/>
</g>
<g filter="url(#filter5_f_2_2)">
<path d="M124 356C137.807 356 149 344.807 149 331C149 317.193 137.807 306 124 306C110.193 306 99 317.193 99 331C99 344.807 110.193 356 124 356Z" fill="#C9E8C4"/>
</g>
<g filter="url(#filter6_f_2_2)">
<path d="M843 210C869.51 210 891 188.51 891 162C891 135.49 869.51 114 843 114C816.49 114 795 135.49 795 162C795 188.51 816.49 210 843 210Z" fill="#C9E8C4"/>
</g>
<g filter="url(#filter7_f_2_2)">
<path d="M599 189C638.212 189 670 157.212 670 118C670 78.7878 638.212 47 599 47C559.788 47 528 78.7878 528 118C528 157.212 559.788 189 599 189Z" fill="#C9E8C4"/>
</g>
<g filter="url(#filter8_f_2_2)">
<path d="M385 187C418.689 187 446 159.689 446 126C446 92.3106 418.689 65 385 65C351.311 65 324 92.3106 324 126C324 159.689 351.311 187 385 187Z" fill="#C9E8C4"/>
</g>
<g filter="url(#filter9_f_2_2)">
<path d="M792 571C803.598 571 813 561.598 813 550C813 538.402 803.598 529 792 529C780.402 529 771 538.402 771 550C771 561.598 780.402 571 792 571Z" fill="#C9E8C4"/>
</g>
<g filter="url(#filter10_f_2_2)">
<path d="M383 631C402.882 631 419 614.882 419 595C419 575.118 402.882 559 383 559C363.118 559 347 575.118 347 595C347 614.882 363.118 631 383 631Z" fill="#C9E8C4"/>
</g>
<g filter="url(#filter11_f_2_2)">
<path d="M244 287C284.869 287 318 253.869 318 213C318 172.131 284.869 139 244 139C203.131 139 170 172.131 170 213C170 253.869 203.131 287 244 287Z" fill="#C9E8C4"/>
</g>
<g filter="url(#filter12_f_2_2)">
<path d="M244 70C279.346 70 308 41.3462 308 6C308 -29.3462 279.346 -58 244 -58C208.654 -58 180 -29.3462 180 6C180 41.3462 208.654 70 244 70Z" fill="#C9E8C4"/>
</g>
<g filter="url(#filter13_f_2_2)">
<path d="M12 535C47.8985 535 77 505.899 77 470C77 434.101 47.8985 405 12 405C-23.8985 405 -53 434.101 -53 470C-53 505.899 -23.8985 535 12 535Z" fill="#C9E8C4"/>
</g>
<g filter="url(#filter14_f_2_2)">
<path d="M872 406C902.376 406 927 381.376 927 351C927 320.624 902.376 296 872 296C841.624 296 817 320.624 817 351C817 381.376 841.624 406 872 406Z" fill="#C9E8C4"/>
</g>
<g filter="url(#filter15_f_2_2)">
<path d="M867 63C901.242 63 929 35.2417 929 1C929 -33.2417 901.242 -61 867 -61C832.758 -61 805 -33.2417 805 1C805 35.2417 832.758 63 867 63Z" fill="#C9E8C4"/>
</g>
</g>
<defs>
<filter id="filter0_f_2_2" x="264" y="270" width="242" height="242" filterUnits="userSpaceOnUse" color-interpolation-filters="sRGB">
<feFlood flood-opacity="0" result="BackgroundImageFix"/>
<feBlend mode="normal" in="SourceGraphic" in2="BackgroundImageFix" result="shape"/>
<feGaussianBlur stdDeviation="20" result="effect1_foregroundBlur_2_2"/>
</filter>
<filter id="filter1_f_2_2" x="100" y="486" width="122" height="122" filterUnits="userSpaceOnUse" color-interpolation-filters="sRGB">
<feFlood flood-opacity="0" result="BackgroundImageFix"/>
<feBlend mode="normal" in="SourceGraphic" in2="BackgroundImageFix" result="shape"/>
<feGaussianBlur stdDeviation="20" result="effect1_foregroundBlur_2_2"/>
</filter>
<filter id="filter2_f_2_2" x="532" y="429" width="138" height="138" filterUnits="userSpaceOnUse" color-interpolation-filters="sRGB">
<feFlood flood-opacity="0" result="BackgroundImageFix"/>
<feBlend mode="normal" in="SourceGraphic" in2="BackgroundImageFix" result="shape"/>
<feGaussianBlur stdDeviation="20" result="effect1_foregroundBlur_2_2"/>
</filter>
<filter id="filter3_f_2_2" x="539" y="190" width="174" height="174" filterUnits="userSpaceOnUse" color-interpolation-filters="sRGB">
<feFlood flood-opacity="0" result="BackgroundImageFix"/>
<feBlend mode="normal" in="SourceGraphic" in2="BackgroundImageFix" result="shape"/>
<feGaussianBlur stdDeviation="20" result="effect1_foregroundBlur_2_2"/>
</filter>
<filter id="filter4_f_2_2" x="12" y="9" width="138" height="138" filterUnits="userSpaceOnUse" color-interpolation-filters="sRGB">
<feFlood flood-opacity="0" result="BackgroundImageFix"/>
<feBlend mode="normal" in="SourceGraphic" in2="BackgroundImageFix" result="shape"/>
<feGaussianBlur stdDeviation="20" result="effect1_foregroundBlur_2_2"/>
</filter>
<filter id="filter5_f_2_2" x="59" y="266" width="130" height="130" filterUnits="userSpaceOnUse" color-interpolation-filters="sRGB">
<feFlood flood-opacity="0" result="BackgroundImageFix"/>
<feBlend mode="normal" in="SourceGraphic" in2="BackgroundImageFix" result="shape"/>
<feGaussianBlur stdDeviation="20" result="effect1_foregroundBlur_2_2"/>
</filter>
<filter id="filter6_f_2_2" x="755" y="74" width="176" height="176" filterUnits="userSpaceOnUse" color-interpolation-filters="sRGB">
<feFlood flood-opacity="0" result="BackgroundImageFix"/>
<feBlend mode="normal" in="SourceGraphic" in2="BackgroundImageFix" result="shape"/>
<feGaussianBlur stdDeviation="20" result="effect1_foregroundBlur_2_2"/>
</filter>
<filter id="filter7_f_2_2" x="488" y="7" width="222" height="222" filterUnits="userSpaceOnUse" color-interpolation-filters="sRGB">
<feFlood flood-opacity="0" result="BackgroundImageFix"/>
<feBlend mode="normal" in="SourceGraphic" in2="BackgroundImageFix" result="shape"/>
<feGaussianBlur stdDeviation="20" result="effect1_foregroundBlur_2_2"/>
</filter>
<filter id="filter8_f_2_2" x="284" y="25" width="202" height="202" filterUnits="userSpaceOnUse" color-interpolation-filters="sRGB">
<feFlood flood-opacity="0" result="BackgroundImageFix"/>
<feBlend mode="normal" in="SourceGraphic" in2="BackgroundImageFix" result="shape"/>
<feGaussianBlur stdDeviation="20" result="effect1_foregroundBlur_2_2"/>
</filter>
<filter id="filter9_f_2_2" x="731" y="489" width="122" height="122" filterUnits="userSpaceOnUse" color-interpolation-filters="sRGB">
<feFlood flood-opacity="0" result="BackgroundImageFix"/>
<feBlend mode="normal" in="SourceGraphic" in2="BackgroundImageFix" result="shape"/>
<feGaussianBlur stdDeviation="20" result="effect1_foregroundBlur_2_2"/>
</filter>
<filter id="filter10_f_2_2" x="307" y="519" width="152" height="152" filterUnits="userSpaceOnUse" color-interpolation-filters="sRGB">
<feFlood flood-opacity="0" result="BackgroundImageFix"/>
<feBlend mode="normal" in="SourceGraphic" in2="BackgroundImageFix" result="shape"/>
<feGaussianBlur stdDeviation="20" result="effect1_foregroundBlur_2_2"/>
</filter>
<filter id="filter11_f_2_2" x="130" y="99" width="228" height="228" filterUnits="userSpaceOnUse" color-interpolation-filters="sRGB">
<feFlood flood-opacity="0" result="BackgroundImageFix"/>
<feBlend mode="normal" in="SourceGraphic" in2="BackgroundImageFix" result="shape"/>
<feGaussianBlur stdDeviation="20" result="effect1_foregroundBlur_2_2"/>
</filter>
<filter id="filter12_f_2_2" x="140" y="-98" width="208" height="208" filterUnits="userSpaceOnUse" color-interpolation-filters="sRGB">
<feFlood flood-opacity="0" result="BackgroundImageFix"/>
<feBlend mode="normal" in="SourceGraphic" in2="BackgroundImageFix" result="shape"/>
<feGaussianBlur stdDeviation="20" result="effect1_foregroundBlur_2_2"/>
</filter>
<filter id="filter13_f_2_2" x="-93" y="365" width="210" height="210" filterUnits="userSpaceOnUse" color-interpolation-filters="sRGB">
<feFlood flood-opacity="0" result="BackgroundImageFix"/>
<feBlend mode="normal" in="SourceGraphic" in2="BackgroundImageFix" result="shape"/>
<feGaussianBlur stdDeviation="20" result="effect1_foregroundBlur_2_2"/>
</filter>
<filter id="filter14_f_2_2" x="777" y="256" width="190" height="190" filterUnits="userSpaceOnUse" color-interpolation-filters="sRGB">
<feFlood flood-opacity="0" result="BackgroundImageFix"/>
<feBlend mode="normal" in="SourceGraphic" in2="BackgroundImageFix" result="shape"/>
<feGaussianBlur stdDeviation="20" result="effect1_foregroundBlur_2_2"/>
</filter>
<filter id="filter15_f_2_2" x="765" y="-101" width="204" height="204" filterUnits="userSpaceOnUse" color-interpolation-filters="sRGB">
<feFlood flood-opacity="0" result="BackgroundImageFix"/>
<feBlend mode="normal" in="SourceGraphic" in2="BackgroundImageFix" result="shape"/>
<feGaussianBlur stdDeviation="20" result="effect1_foregroundBlur_2_2"/>
</filter>
<clipPath id="clip0_2_2">
<rect width="900" height="600" fill="white"/>
</clipPath>
</defs>
</svg>
